<?xml version="1.0" encoding="utf-8"?>
<svg width="402" height="402" viewBox="0 0 402 402" fill="none" xmlns="http://www.w3.org/2000/svg">
  <defs/>
  <rect width="402" height="402"/>
  <path d="M 60.468 253.231 C 47.107 253.231 34.385 253.231 21.32 253.231 C 21.32 199.185 21.32 145.538 21.32 91.086 C 25.385 91.086 29.357 91.041 33.328 91.094 C 53.932 91.365 74.624 90.507 95.121 92.205 C 131.803 95.245 156.019 121.996 158.625 160.562 C 159.638 175.547 158.965 190.398 153.608 204.647 C 152.256 208.244 150.517 210.003 146.349 210.329 C 131.227 211.516 119.078 224.38 117.931 240.314 C 117.628 244.507 115.81 246.076 112.646 247.427 C 100.165 252.762 87.097 253.537 73.861 253.246 C 69.611 253.154 65.358 253.231 60.468 253.231 Z M 116.393 194.117 C 120.147 182.927 120.873 171.414 119.075 159.807 C 117.035 146.639 111.603 135.488 99.397 129.735 C 86.095 123.468 72.023 126.372 58.446 125.832 C 58.446 157.327 58.446 187.809 58.446 218.396 C 66.537 218.396 74.19 218.515 81.838 218.371 C 97.811 218.072 109.376 210.535 116.393 194.117 Z" fill="#FDFDFD" style=""/>
  <path d="M 377.074 267.767 C 370.473 288.662 355.632 300.8 336.475 306.411 C 299.322 317.292 266.11 308.367 237.333 281.397 C 236.885 280.98 236.597 280.375 235.926 279.414 C 237.542 277.448 239.163 275.473 241.713 273.339 C 287.787 280.526 332.785 283.847 377.074 267.767 Z" fill="#B55BFD" style=""/>
  <path d="M 208.353 275.952 C 199.301 295.528 184.185 306.549 163.969 309.796 C 139.123 313.785 117.514 307.39 101.231 286.245 C 97.862 281.87 95.622 276.537 92.927 271.76 C 103.302 268.598 112.632 265.755 122.629 262.707 C 128.567 270.984 136.817 276.717 148.606 277.949 C 155.241 278.826 160.973 280.035 166.619 279.685 C 180.552 278.821 194.444 277.243 208.353 275.952 Z" fill="#B55BFD" style=""/>
  <path d="M 271.738 199.353 C 254.784 189.296 245.947 173.923 245.221 153.112 C 257.649 153.433 269.425 154.308 281.202 155.183 C 285.628 166.258 295.163 170.732 304.711 175.14 C 320.558 182.455 336.434 189.7 352.043 197.474 C 334.776 202.805 317.629 206.216 299.88 203.513 C 290.504 202.086 281.118 200.737 271.738 199.353 Z" fill="#FCDA5C" style=""/>
  <path d="M 257.791 114.704 C 270.62 98.989 287.671 92.492 306.619 91.334 C 332.64 89.74 355.143 98.863 374.375 117.82 C 372.997 119.742 371.883 121.294 369.757 123.006 C 352.694 122.635 336.602 122.704 320.608 121.423 C 299.629 119.741 278.726 116.993 257.791 114.704 Z" fill="#FC5B5B" style=""/>
  <path d="M 272.019 199.756 C 281.118 200.737 290.504 202.086 299.88 203.513 C 317.629 206.216 334.776 202.805 352.279 197.848 C 366.616 205.379 375.519 217.097 378.726 233.664 C 366.45 236.527 354.635 238.847 342.821 241.166 C 339.136 233.649 332.934 229.201 325.836 225.873 C 309.837 218.374 293.819 210.915 277.832 203.385 C 275.914 202.483 274.141 201.243 272.019 199.756 Z" fill="#5CFC9C" style=""/>
  <path d="M 257.455 114.959 C 278.726 116.993 299.629 119.741 320.608 121.423 C 336.602 122.704 352.694 122.635 369.373 123.243 C 365.476 129.45 360.95 135.579 356.171 142.052 C 346.375 133.691 336.135 126.655 323.851 125.232 C 315.566 124.272 306.799 124.25 298.697 126.04 C 285.26 129.01 279.782 138.896 281.22 154.576 C 269.425 154.308 257.649 153.433 245.302 152.569 C 244.031 138.359 248.475 126.02 257.455 114.959 Z" fill="#F39153" style=""/>
  <path d="M 342.864 241.701 C 354.635 238.847 366.45 236.527 378.749 234.146 C 381.782 245.205 381.185 256.158 377.367 267.364 C 332.785 283.847 287.787 280.526 242.091 273.119 C 246.306 266.864 251.07 260.669 256.036 254.212 C 267.626 264.604 279.881 272.635 294.435 276.22 C 304.523 278.704 314.544 278.949 324.58 275.957 C 340.315 271.263 347.079 258.858 342.864 241.701 Z" fill="#5C6BFB" style=""/>
  <path d="M 208.638 275.554 C 194.444 277.243 180.552 278.821 166.619 279.685 C 160.973 280.035 155.241 278.826 149.127 278.12 C 170.529 274.942 181.217 263.467 182.396 241.752 C 194.146 238.749 205.3 236.375 216.452 234.004 C 217.495 248.435 215.103 262.177 208.638 275.554 Z" fill="#5C6BFB" style=""/>
  <path d="M 181.956 139.188 C 181.956 123.392 181.956 107.597 181.956 91.425 C 193.507 91.425 204.701 91.425 216.883 91.425 C 216.883 102.417 216.883 113.467 216.285 125.146 C 204.444 130.245 193.201 134.716 181.956 139.188 Z" fill="#F35B59" style=""/>
  <path d="M 216.588 233.408 C 205.3 236.375 194.146 238.749 182.48 241.196 C 181.909 226.862 181.852 212.453 182.434 197.403 C 194.199 195.671 205.323 194.582 216.449 193.494 C 216.54 206.6 216.631 219.707 216.588 233.408 Z" fill="#5DFE9D" style=""/>
  <path d="M 145.728 222.994 C 159.362 221.432 169.618 230.248 170.066 243.332 C 170.469 255.099 161.043 265.134 149.645 265.071 C 138.011 265.007 128.721 254.618 129.444 242.482 C 130.007 233.04 135.555 226.245 145.728 222.994 Z" fill="#FBFBFB" style=""/>
  <path d="M 216.605 192.933 C 205.323 194.582 194.199 195.671 182.524 196.787 C 181.918 185.627 181.865 174.443 182.459 162.622 C 186.628 161.553 190.169 161.258 193.664 160.664 C 201.285 159.37 208.883 157.926 216.49 156.543 C 216.58 168.485 216.671 180.428 216.605 192.933 Z" fill="#FCDA5C" style=""/>
  <path d="M 216.681 156.038 C 208.883 157.926 201.285 159.37 193.664 160.664 C 190.169 161.258 186.628 161.553 182.552 162.009 C 181.928 154.827 181.859 147.62 181.874 139.802 C 193.201 134.716 204.444 130.245 216.1 125.742 C 216.633 135.652 216.752 145.593 216.681 156.038 Z" fill="#F39153" style=""/>
</svg>